<svg width="271.673" height="271.673" xmlns="http://www.w3.org/2000/svg">

 <g>
  <title>background</title>
  <rect fill="none" id="canvas_background" height="402" width="582" y="-1" x="-1"/>
 </g>
 <g>
  <title>Layer 1</title>
  <g id="svg_1">
   <g id="svg_2">
    <g fill="white" id="svg_3">
     <path id="svg_4" d="m114.939,-2l-104.49,0c-5.771,0 -10.449,4.678 -10.449,10.449l0,104.49c0,5.771 4.678,10.449 10.449,10.449l104.49,0c5.771,0 10.449,-4.678 10.449,-10.449l0,-104.49c0,-5.771 -4.678,-10.449 -10.449,-10.449z"/>
     <path id="svg_5" d="m261.224,-2l-104.49,0c-5.771,0 -10.449,4.678 -10.449,10.449l0,104.49c0,5.771 4.678,10.449 10.449,10.449l104.49,0c5.771,0 10.449,-4.678 10.449,-10.449l0,-104.49c0,-5.771 -4.678,-10.449 -10.449,-10.449z"/>
     <path id="svg_6" d="m114.939,144.286l-104.49,0c-5.771,0 -10.449,4.678 -10.449,10.449l0,104.49c0,5.771 4.678,10.449 10.449,10.449l104.49,0c5.771,0 10.449,-4.678 10.449,-10.449l0,-104.49c0,-5.771 -4.678,-10.449 -10.449,-10.449z"/>
     <path id="svg_7" d="m261.224,144.286l-104.49,0c-5.771,0 -10.449,4.678 -10.449,10.449l0,104.49c0,5.771 4.678,10.449 10.449,10.449l104.49,0c5.771,0 10.449,-4.678 10.449,-10.449l0,-104.49c0,-5.771 -4.678,-10.449 -10.449,-10.449z"/>
    </g>
   </g>
  </g>
  <g id="svg_8"/>
  <g id="svg_9"/>
  <g id="svg_10"/>
  <g id="svg_11"/>
  <g id="svg_12"/>
  <g id="svg_13"/>
  <g id="svg_14"/>
  <g id="svg_15"/>
  <g id="svg_16"/>
  <g id="svg_17"/>
  <g id="svg_18"/>
  <g id="svg_19"/>
  <g id="svg_20"/>
  <g id="svg_21"/>
  <g id="svg_22"/>
 </g>
</svg>